inDegrees=yes
name=ik_S56_A05_T01
DataType=double
version=3
OpenSimVersion=4.3-2021-08-27-4bc7ad9
endheader
time	pelvis_tilt	pelvis_list	pelvis_rotation	pelvis_tx	pelvis_ty	pelvis_tz	hip_flexion_r	hip_adduction_r	hip_rotation_r	knee_angle_r	knee_angle_r_beta	ankle_angle_r	subtalar_angle_r	mtp_angle_r	hip_flexion_l	hip_adduction_l	hip_rotation_l	knee_angle_l	knee_angle_l_beta	ankle_angle_l	subtalar_angle_l	mtp_angle_l	lumbar_extension	lumbar_bending	lumbar_rotation	arm_flex_r	arm_add_r	arm_rot_r	elbow_flex_r	pro_sup_r	wrist_flex_r	wrist_dev_r	arm_flex_l	arm_add_l	arm_rot_l	elbow_flex_l	pro_sup_l	wrist_flex_l	wrist_dev_l
0	0	0	0	0	0.9399999999999999	0	0	0	0	0	0	0	0	0	0	0	0	0	0	0	0	0	0	0	0	0	0	0	0	89.99999999963507	0	0	0	0	0	0	89.99999999869995	0	0
0.02	-10.41799312465848	-0.9491617687312167	28.61824207140741	0	0.9399999999999999	0	2.874235362734651	-1.355984328618702	-0.9686008028244617	4.450424121256618	0.07767455402610335	0	0	0	2.874235362734651	-1.355984328618702	-0.9686008028244617	4.450424121256618	0.07767455402610335	0	0	0	-3.935185929449613	-5.106345909301079	8.215026552069034	26.36061674103675	-7.558153347782775	-4.676547083741768	46.47405287795456	144.6535854108084	0	0	23.45107233294219	-6.319431962925079	-2.313502785588995	47.36237988530245	127.3645550705517	0	0
0.04	-7.993487651766084	-2.274601106969912	30.84918591693993	0	0.9399999999999999	0	45.1623145661303	-9.988338067472206	-10.41068573956731	54.32035554898483	0.9480690551837572	0	0	0	45.1623145661303	-9.988338067472206	-10.41068573956731	54.32035554898483	0.9480690551837572	0	0	0	-5.490923864153349	-2.596522276115807	6.263102250295129	26.34567550877175	-7.565601869871404	-4.701062294793174	46.43492921970854	144.6511094796763	0	0	23.43478349967445	-6.327083373811619	-2.303877787956416	47.38037819164228	127.3843655822824	0	0
0.06	-7.985715514644837	-2.278979147108409	30.86059819205115	0	0.9399999999999999	0	45.1618467066499	-9.988368216870304	-10.40916500775603	54.32184726127561	0.9480950904747238	0	0	0	45.1618467066499	-9.988368216870304	-10.40916500775603	54.32184726127561	0.9480950904747238	0	0	0	-5.491792579620393	-2.59531849040341	6.265304195914986	26.33548514412221	-7.550625523922528	-4.719371512778843	46.44982152758011	144.6442880662785	0	0	23.43661300326423	-6.323599762325608	-2.270831557771393	47.40471338566074	127.3532291538449	0	0
0.08	-7.979074194160472	-2.285403117190818	30.88641924523706	0	0.9399999999999999	0	45.1616234218772	-9.988380922471995	-10.40846570388233	54.32256479796288	0.9481076138524205	0	0	0	45.1616234218772	-9.988380922471995	-10.40846570388233	54.32256479796288	0.9481076138524205	0	0	0	-5.491850364295367	-2.600073854431618	6.26699677171784	26.32076995247024	-7.543119076290011	-4.778037216434718	46.44865980953265	144.6481501242495	0	0	23.4571099311082	-6.308617396679917	-2.267191689846423	47.40510609272286	127.381396458746	0	0
0.1	-7.96798145802387	-2.29255457922054	30.91375872800297	0	0.9399999999999999	0	45.16136962316271	-9.988436606964729	-10.40713810041406	54.32329398829151	0.9481203406245288	0	0	0	45.16136962316271	-9.988436606964729	-10.40713810041406	54.32329398829151	0.9481203406245288	0	0	0	-5.488519665580335	-2.607662296892244	6.268578596099854	26.29206947072551	-7.525709639685906	-4.795858897642171	46.46040898199582	144.5828072489318	0	0	23.46927211259098	-6.297444921021638	-2.281782765914476	47.4078438000322	127.3941123190662	0	0
0.12	-7.966039707639164	-2.293356564687371	30.93495195459471	0	0.9399999999999999	0	45.16125291868686	-9.988465418170946	-10.40649053736336	54.32362403836712	0.9481261010850447	0	0	0	45.16125291868686	-9.988465418170946	-10.40649053736336	54.32362403836712	0.9481261010850447	0	0	0	-5.488361031046337	-2.607571144264992	6.270437389368945	26.27703540500049	-7.537492244065662	-4.797978227741353	46.45926171401214	144.5772378743346	0	0	23.47551690240998	-6.311459941667371	-2.329006493201987	47.39644894988746	127.4251348281931	0	0
0.14	-7.955139962343933	-2.297260353271918	30.9595022089593	0	0.9399999999999999	0	45.1610698294481	-9.988508770732636	-10.40549377981545	54.32414403871764	0.9481351768032728	0	0	0	45.1610698294481	-9.988508770732636	-10.40549377981545	54.32414403871764	0.9481351768032728	0	0	0	-5.482832364908313	-2.613393513034018	6.270310973548244	26.2652526265336	-7.509469155031232	-4.760193574645404	46.46515450475709	144.5378846579616	0	0	23.48007635046327	-6.306939094852451	-2.357301531468314	47.38772939681064	127.46045069701	0	0
0.16	-7.946291937283886	-2.296814344541634	30.97745655451932	0	0.9399999999999999	0	45.16082087093406	-9.988562481944646	-10.40420309560248	54.32486121495334	0.9481476938899027	0	0	0	45.16082087093406	-9.988562481944646	-10.40420309560248	54.32486121495334	0.9481476938899027	0	0	0	-5.477658583713845	-2.612881318776259	6.268153332280895	26.25359371529981	-7.512246621308709	-4.717993265074522	46.47546271883973	144.4878603086241	0	0	23.46869776925994	-6.31595874710711	-2.339105981486024	47.39340812569996	127.4602569466106	0	0
0.18	-7.940200326244313	-2.295227243628821	30.99494284509171	0	0.9399999999999999	0	45.160624024241	-9.988606731016931	-10.40316133503749	54.32542507402909	0.9481575350872918	0	0	0	45.160624024241	-9.988606731016931	-10.40316133503749	54.32542507402909	0.9481575350872918	0	0	0	-5.47383136405315	-2.61049472279879	6.262302428294424	26.23431264567661	-7.524183173645936	-4.701674078805166	46.47454766841929	144.4422591982233	0	0	23.47413525519892	-6.320571496195552	-2.404808943086056	47.37921853270051	127.4855764376415	0	0
0.2	-7.930007251193379	-2.294556418495352	31.01541816068477	0	0.9399999999999999	0	45.16041355360957	-9.98866126663162	-10.40195407988105	54.32601280008029	0.9481677928419849	0	0	0	45.16041355360957	-9.98866126663162	-10.40195407988105	54.32601280008029	0.9481677928419849	0	0	0	-5.467095722594553	-2.61079316981705	6.256202023202162	26.22809413413965	-7.534750106725371	-4.692074518726718	46.47487729069692	144.3851523864407	0	0	23.48620852599169	-6.323141756042878	-2.471425990707445	47.3468319648765	127.5481373546996	0	0
0.22	-7.925732556518053	-2.289580318287712	31.02904693636134	0	0.9399999999999999	0	45.16022807792379	-9.988703949568947	-10.40095513382558	54.3265461239613	0.9481771010996882	0	0	0	45.16022807792379	-9.988703949568947	-10.40095513382558	54.3265461239613	0.9481771010996882	0	0	0	-5.462904446665622	-2.605060780735004	6.253056829388894	26.2249472088243	-7.553509094656541	-4.686585411479527	46.46299987324435	144.3084655633409	0	0	23.48328750013114	-6.308477371545292	-2.468821283872829	47.3349806598657	127.5967303574068	0	0
0.24	-7.921695293373407	-2.286450913087421	31.0256801098727	0	0.9399999999999999	0	45.16012209904655	-9.988734133427176	-10.40031337687343	54.32683714793582	0.9481821804262458	0	0	0	45.16012209904655	-9.988734133427176	-10.40031337687343	54.32683714793582	0.9481821804262458	0	0	0	-5.458815650728535	-2.602829976765461	6.254172912916864	26.22648795857101	-7.571356369947456	-4.711807036073202	46.47130391684043	144.2845874354302	0	0	23.47353205024371	-6.313674269374403	-2.462671124097847	47.33331763406957	127.5885887172661	0	0
0.26	-7.91974201065322	-2.282746602546086	31.02048117754492	0	0.9399999999999999	0	45.15983593062536	-9.98879873745852	-10.39879058989854	54.32765479748129	0.9481964511029417	0	0	0	45.15983593062536	-9.98879873745852	-10.39879058989854	54.32765479748129	0.9481964511029417	0	0	0	-5.45824656960582	-2.595376498077496	6.252618757930347	26.23619383635333	-7.575246261109385	-4.715403307531298	46.4950874727961	144.2288653183006	0	0	23.46690308342565	-6.30359610391133	-2.404638194035836	47.35760084979895	127.5486237308553	0	0
0.28	-7.911919153433016	-2.279209356645278	31.01684446306837	0	0.9399999999999999	0	45.15968518295649	-9.98883730154753	-10.39793295251918	54.32807725547415	0.9482038243858684	0	0	0	45.15968518295649	-9.98883730154753	-10.39793295251918	54.32807725547415	0.9482038243858684	0	0	0	-5.451136266212088	-2.594099034091069	6.255254989003848	26.23809753316181	-7.596624918700831	-4.735942160516099	46.48172640384282	144.2109410784416	0	0	23.45995319612283	-6.331054669087217	-2.362774474551131	47.35944346606749	127.5373029756831	0	0
0.3	-7.908764570699632	-2.283080011172959	31.01362513043782	0	0.9399999999999999	0	45.15946744285806	-9.988882116729098	-10.39683154406768	54.32870880052285	0.9482148469263428	0	0	0	45.15946744285806	-9.988882116729098	-10.39683154406768	54.32870880052285	0.9482148469263428	0	0	0	-5.452735364999522	-2.595076757625126	6.255371130626725	26.2560209837718	-7.563862636765852	-4.75256870541254	46.4813836631304	144.1861384330931	0	0	23.44504384713477	-6.330574882879357	-2.324537565629036	47.36980913619838	127.5078885542852	0	0
0.32	-7.903806330832043	-2.278751246454861	30.99924748834593	0	0.9399999999999999	0	45.15949459455665	-9.988878441592682	-10.39695322323755	54.3286294544089	0.9482134620754059	0	0	0	45.15949459455665	-9.988878441592682	-10.39695322323755	54.3286294544089	0.9482134620754059	0	0	0	-5.445924900900401	-2.594584135372324	6.256367618589812	26.24552830081239	-7.574010870810242	-4.774034436873181	46.44368088434029	144.2468396524752	0	0	23.45681063828853	-6.367120192073461	-2.331006086051416	47.34331530432873	127.5342126422078	0	0
0.34	-7.904378246254224	-2.282298577358044	30.99763870673709	0	0.9399999999999999	0	45.15936118944047	-9.988905810544669	-10.39628234088282	54.32901821127131	0.9482202471626446	0	0	0	45.15936118944047	-9.988905810544669	-10.39628234088282	54.32901821127131	0.9482202471626446	0	0	0	-5.44961366471167	-2.594934923589412	6.256287238010358	26.25983611013519	-7.562167846502502	-4.77408987750767	46.45091610544326	144.2435068394764	0	0	23.46231334859078	-6.362881835827549	-2.320539758232285	47.3469312727281	127.5224261989088	0	0
0.36	-7.905268659305092	-2.2793872106193	30.98682962060857	0	0.9399999999999999	0	45.15923500794124	-9.988934396428132	-10.39561359665538	54.32938010767629	0.9482265634464627	0	0	0	45.15923500794124	-9.988934396428132	-10.39561359665538	54.32938010767629	0.9482265634464627	0	0	0	-5.450418779240661	-2.588938785663052	6.249547866183109	26.26558170334921	-7.552402916177796	-4.776386124277474	46.45305771575188	144.2432672269326	0	0	23.45984978016333	-6.357174928458516	-2.342032076883579	47.34634510001114	127.5062955919439	0	0
